<svg xmlns="http://www.w3.org/2000/svg" version="1.1" xmlns:xlink="http://www.w3.org/1999/xlink" xmlns:svgjs="http://svgjs.dev/svgjs" width="1500" height="1500" viewBox="0 0 1500 1500"><rect width="1500" height="1500" fill="#000000"></rect><g transform="matrix(0.6666666666666666,0,0,0.6666666666666666,249.39393939393938,438.5856950067477)"><svg viewBox="0 0 396 247" data-background-color="#000000" preserveAspectRatio="xMidYMid meet" height="935" width="1500" xmlns="http://www.w3.org/2000/svg" xmlns:xlink="http://www.w3.org/1999/xlink"><g id="tight-bounds" transform="matrix(1,0,0,1,0.2400000000000091,-0.09999999999999432)"><svg viewBox="0 0 395.52 247.2" height="247.2" width="395.52"><rect width="395.52" height="247.2" fill="url(#579657b4-844c-49de-a83b-21cba18291d7)" mask="url(#5d937d7a-b685-4bcd-a94d-321f38882f81)" data-fill-palette-color="tertiary"></rect><g><svg></svg></g><g><svg viewBox="0 0 395.52 247.2" height="247.2" width="395.52"><g transform="matrix(1,0,0,1,75.54432,108.91864447772716)"><svg viewBox="0 0 244.43135999999998 29.362711044545662" height="29.362711044545662" width="244.43135999999998"><g><svg viewBox="0 0 244.43135999999998 29.362711044545662" height="29.362711044545662" width="244.43135999999998"><g><svg viewBox="0 0 244.43135999999998 29.362711044545662" height="29.362711044545662" width="244.43135999999998"><g><svg viewBox="0 0 244.43135999999998 29.362711044545662" height="29.362711044545662" width="244.43135999999998"><g id="textblocktransform"><svg viewBox="0 0 244.43135999999998 29.362711044545662" height="29.362711044545662" width="244.43135999999998" id="textblock"><g><svg viewBox="0 0 244.43135999999998 29.362711044545662" height="29.362711044545662" width="244.43135999999998"><g transform="matrix(1,0,0,1,0,0)"><svg width="244.43135999999998" viewBox="3.42 -37.5 316.2 37.99" height="29.362711044545662" data-palette-color="url(#60cfeecb-830c-4684-90fa-af33929e4665)"></svg></g></svg></g></svg></g></svg></g></svg></g></svg></g></svg></g><path d="M175.247 102.919L175.247 38.67 5.387 38.67 5.387 208.53 175.247 208.53 175.247 144.281 172.599 144.281 172.599 205.882 8.035 205.882 8.035 41.318 172.599 41.318 172.599 102.919Z" fill="url(#579657b4-844c-49de-a83b-21cba18291d7)" stroke="transparent" data-fill-palette-color="tertiary"></path></svg></g><defs></defs><mask id="393119a0-01dc-432d-a8cb-6a1907a28530"><g id="SvgjsG1274"><svg viewBox="0 0 395.52 247.2" height="247.2" width="395.52"><g><svg></svg></g><g><svg viewBox="0 0 395.52 247.2" height="247.2" width="395.52"><g transform="matrix(1,0,0,1,75.54432,108.91864447772716)"><svg viewBox="0 0 244.43135999999998 29.362711044545662" height="29.362711044545662" width="244.43135999999998"><g><svg viewBox="0 0 244.43135999999998 29.362711044545662" height="29.362711044545662" width="244.43135999999998"><g><svg viewBox="0 0 244.43135999999998 29.362711044545662" height="29.362711044545662" width="244.43135999999998"><g><svg viewBox="0 0 244.43135999999998 29.362711044545662" height="29.362711044545662" width="244.43135999999998"><g id="SvgjsG1273"><svg viewBox="0 0 244.43135999999998 29.362711044545662" height="29.362711044545662" width="244.43135999999998" id="SvgjsSvg1272"><g><svg viewBox="0 0 244.43135999999998 29.362711044545662" height="29.362711044545662" width="244.43135999999998"><g transform="matrix(1,0,0,1,0,0)"><svg width="244.43135999999998" viewBox="3.42 -37.5 316.2 37.99" height="29.362711044545662" data-palette-color="url(#60cfeecb-830c-4684-90fa-af33929e4665)"><path d="M7.93-37.5L7.93-23.22Q10.94-26.9 15.75-26.9L15.75-26.9Q24.12-26.9 24.19-17.46L24.19-17.46 24.19 0 19.68 0 19.68-17.48Q19.65-20.34 18.37-21.7 17.09-23.07 14.38-23.07L14.38-23.07Q12.18-23.07 10.52-21.9 8.86-20.73 7.93-18.82L7.93-18.82 7.93 0 3.42 0 3.42-37.5 7.93-37.5ZM52 0L47.26 0Q46.87-0.78 46.63-2.78L46.63-2.78Q43.48 0.49 39.11 0.49L39.11 0.49Q35.2 0.49 32.7-1.72 30.2-3.93 30.2-7.32L30.2-7.32Q30.2-11.45 33.33-13.73 36.47-16.02 42.16-16.02L42.16-16.02 46.56-16.02 46.56-18.09Q46.56-20.46 45.14-21.86 43.72-23.27 40.96-23.27L40.96-23.27Q38.55-23.27 36.91-22.05 35.28-20.83 35.28-19.09L35.28-19.09 30.73-19.09Q30.73-21.07 32.14-22.91 33.54-24.76 35.95-25.83 38.35-26.9 41.23-26.9L41.23-26.9Q45.8-26.9 48.39-24.62 50.97-22.34 51.07-18.33L51.07-18.33 51.07-6.18Q51.07-2.54 52-0.39L52-0.39 52 0ZM39.77-3.44L39.77-3.44Q41.89-3.44 43.8-4.54 45.7-5.64 46.56-7.4L46.56-7.4 46.56-12.82 43.02-12.82Q34.71-12.82 34.71-7.96L34.71-7.96Q34.71-5.83 36.13-4.64 37.55-3.44 39.77-3.44ZM59.79-26.42L66.5-6.13 73.04-26.42 77.66-26.42 68.18 0 64.74 0 55.17-26.42 59.79-26.42ZM92.64 0.49L92.64 0.49Q87.27 0.49 83.9-3.04 80.53-6.57 80.53-12.48L80.53-12.48 80.53-13.31Q80.53-17.24 82.04-20.32 83.54-23.41 86.24-25.16 88.93-26.9 92.08-26.9L92.08-26.9Q97.23-26.9 100.09-23.51 102.95-20.12 102.95-13.79L102.95-13.79 102.95-11.91 85.05-11.91Q85.15-8.01 87.33-5.6 89.52-3.2 92.89-3.2L92.89-3.2Q95.28-3.2 96.94-4.17 98.6-5.15 99.85-6.76L99.85-6.76 102.6-4.61Q99.28 0.49 92.64 0.49ZM92.08-23.19L92.08-23.19Q89.35-23.19 87.49-21.2 85.64-19.21 85.2-15.63L85.2-15.63 98.43-15.63 98.43-15.97Q98.23-19.41 96.57-21.3 94.91-23.19 92.08-23.19ZM108.17-26.42L112.44-26.42 112.59-23.1Q115.62-26.9 120.5-26.9L120.5-26.9Q128.87-26.9 128.95-17.46L128.95-17.46 128.95 0 124.43 0 124.43-17.48Q124.4-20.34 123.12-21.7 121.84-23.07 119.13-23.07L119.13-23.07Q116.93-23.07 115.27-21.9 113.61-20.73 112.69-18.82L112.69-18.82 112.69 0 108.17 0 108.17-26.42ZM141.86-16.28L141.86-19.97 145.25-19.97Q148.45-20.02 150.28-21.66 152.11-23.29 152.11-26.07L152.11-26.07Q152.11-32.32 145.89-32.32L145.89-32.32Q142.96-32.32 141.21-30.65 139.47-28.98 139.47-26.22L139.47-26.22 134.95-26.22Q134.95-30.44 138.04-33.24 141.13-36.04 145.89-36.04L145.89-36.04Q150.92-36.04 153.77-33.37 156.63-30.71 156.63-25.98L156.63-25.98Q156.63-23.66 155.13-21.48 153.63-19.31 151.04-18.24L151.04-18.24Q153.97-17.31 155.57-15.16 157.17-13.01 157.17-9.91L157.17-9.91Q157.17-5.13 154.04-2.32 150.92 0.49 145.91 0.49 140.91 0.49 137.77-2.22 134.63-4.93 134.63-9.38L134.63-9.38 139.17-9.38Q139.17-6.57 141-4.88 142.83-3.2 145.91-3.2L145.91-3.2Q149.18-3.2 150.92-4.91 152.65-6.62 152.65-9.81L152.65-9.81Q152.65-12.92 150.74-14.58 148.84-16.24 145.25-16.28L145.25-16.28 141.86-16.28ZM180.28-35.57L181.09-35.57 181.09-31.74 180.26-31.74Q174.99-31.64 171.86-28.61 168.74-25.59 168.25-20.09L168.25-20.09Q171.05-23.32 175.91-23.32L175.91-23.32Q180.55-23.32 183.32-20.04 186.09-16.77 186.09-11.6L186.09-11.6Q186.09-6.1 183.1-2.81 180.11 0.49 175.08 0.49L175.08 0.49Q169.98 0.49 166.81-3.43 163.63-7.35 163.63-13.53L163.63-13.53 163.63-15.26Q163.63-25.07 167.82-30.26 172.01-35.45 180.28-35.57L180.28-35.57ZM175.16-19.56L175.16-19.56Q172.84-19.56 170.88-18.16 168.93-16.77 168.17-14.67L168.17-14.67 168.17-13.01Q168.17-8.62 170.15-5.93 172.13-3.25 175.08-3.25L175.08-3.25Q178.13-3.25 179.88-5.49 181.63-7.74 181.63-11.38L181.63-11.38Q181.63-15.04 179.86-17.3 178.09-19.56 175.16-19.56ZM213.73-21.02L213.73-15.16Q213.73-7.23 211.02-3.37 208.31 0.49 202.55 0.49L202.55 0.49Q196.86 0.49 194.12-3.28 191.39-7.06 191.29-14.55L191.29-14.55 191.29-20.58Q191.29-28.42 194-32.23 196.71-36.04 202.5-36.04L202.5-36.04Q208.23-36.04 210.94-32.36 213.65-28.69 213.73-21.02L213.73-21.02ZM209.21-13.94L209.21-21.34Q209.21-27.08 207.6-29.7 205.99-32.32 202.5-32.32L202.5-32.32Q199.03-32.32 197.44-29.71 195.86-27.1 195.81-21.68L195.81-21.68 195.81-14.45Q195.81-8.69 197.48-5.94 199.15-3.2 202.55-3.2L202.55-3.2Q205.89-3.2 207.51-5.79 209.14-8.37 209.21-13.94L209.21-13.94ZM237.26-37.5L237.26 0 232.74 0 232.74-37.5 237.26-37.5ZM265.53 0L260.79 0Q260.4-0.78 260.16-2.78L260.16-2.78Q257.01 0.49 252.64 0.49L252.64 0.49Q248.73 0.49 246.23-1.72 243.73-3.93 243.73-7.32L243.73-7.32Q243.73-11.45 246.86-13.73 250-16.02 255.69-16.02L255.69-16.02 260.08-16.02 260.08-18.09Q260.08-20.46 258.67-21.86 257.25-23.27 254.49-23.27L254.49-23.27Q252.07-23.27 250.44-22.05 248.8-20.83 248.8-19.09L248.8-19.09 244.26-19.09Q244.26-21.07 245.67-22.91 247.07-24.76 249.47-25.83 251.88-26.9 254.76-26.9L254.76-26.9Q259.33-26.9 261.91-24.62 264.5-22.34 264.6-18.33L264.6-18.33 264.6-6.18Q264.6-2.54 265.53-0.39L265.53-0.39 265.53 0ZM253.3-3.44L253.3-3.44Q255.42-3.44 257.32-4.54 259.23-5.64 260.08-7.4L260.08-7.4 260.08-12.82 256.54-12.82Q248.24-12.82 248.24-7.96L248.24-7.96Q248.24-5.83 249.66-4.64 251.07-3.44 253.3-3.44ZM294.04-13.31L294.04-12.92Q294.04-6.86 291.26-3.19 288.47 0.49 283.79 0.49L283.79 0.49Q278.78 0.49 276.05-3.05L276.05-3.05 275.83 0 271.68 0 271.68-37.5 276.19-37.5 276.19-23.51Q278.93-26.9 283.74-26.9 288.55-26.9 291.29-23.27 294.04-19.63 294.04-13.31L294.04-13.31ZM289.52-13.43L289.52-13.43Q289.52-18.04 287.74-20.56 285.96-23.07 282.61-23.07L282.61-23.07Q278.15-23.07 276.19-18.92L276.19-18.92 276.19-7.5Q278.27-3.34 282.66-3.34L282.66-3.34Q285.91-3.34 287.72-5.86 289.52-8.37 289.52-13.43ZM315.11-7.01L315.11-7.01Q315.11-8.84 313.73-9.85 312.35-10.86 308.92-11.6 305.49-12.33 303.47-13.35 301.46-14.38 300.49-15.8 299.53-17.21 299.53-19.17L299.53-19.17Q299.53-22.41 302.28-24.66 305.02-26.9 309.3-26.9L309.3-26.9Q313.79-26.9 316.58-24.58 319.38-22.27 319.38-18.65L319.38-18.65 314.84-18.65Q314.84-20.51 313.26-21.85 311.69-23.19 309.3-23.19L309.3-23.19Q306.83-23.19 305.44-22.12 304.05-21.04 304.05-19.31L304.05-19.31Q304.05-17.68 305.34-16.85 306.64-16.02 310.02-15.26 313.4-14.5 315.5-13.45 317.6-12.4 318.61-10.93 319.62-9.45 319.62-7.32L319.62-7.32Q319.62-3.78 316.79-1.65 313.96 0.49 309.44 0.49L309.44 0.49Q306.27 0.49 303.83-0.63 301.39-1.76 300.01-3.77 298.63-5.79 298.63-8.13L298.63-8.13 303.14-8.13Q303.27-5.86 304.96-4.53 306.66-3.2 309.44-3.2L309.44-3.2Q312.01-3.2 313.56-4.24 315.11-5.27 315.11-7.01Z" opacity="1" transform="matrix(1,0,0,1,0,0)" fill="white" class="wordmark-text-0" id="SvgjsPath1271"></path></svg></g></svg></g></svg></g></svg></g></svg></g></svg></g></svg></g><path d="M175.247 102.919L175.247 38.67 5.387 38.67 5.387 208.53 175.247 208.53 175.247 144.281 172.599 144.281 172.599 205.882 8.035 205.882 8.035 41.318 172.599 41.318 172.599 102.919Z" fill="black" stroke="transparent"></path></svg></g><defs><mask></mask></defs></svg><rect width="395.52" height="247.2" fill="black" stroke="none" visibility="hidden"></rect></g></mask><linearGradient x1="0" x2="1" y1="0.578" y2="0.595" id="60cfeecb-830c-4684-90fa-af33929e4665"><stop stop-color="#6ee2f5" offset="0"></stop><stop stop-color="#6454f0" offset="1"></stop></linearGradient><rect width="395.52" height="247.2" fill="url(#60cfeecb-830c-4684-90fa-af33929e4665)" mask="url(#393119a0-01dc-432d-a8cb-6a1907a28530)" data-fill-palette-color="primary"></rect><mask id="5d937d7a-b685-4bcd-a94d-321f38882f81"><g id="SvgjsG1297"><svg viewBox="0 0 395.52 247.2" height="247.2" width="395.52"><g><svg></svg></g><g><svg viewBox="0 0 395.52 247.2" height="247.2" width="395.52"><g transform="matrix(1,0,0,1,75.54432,108.91864447772716)"><svg viewBox="0 0 244.43135999999998 29.362711044545662" height="29.362711044545662" width="244.43135999999998"><g><svg viewBox="0 0 244.43135999999998 29.362711044545662" height="29.362711044545662" width="244.43135999999998"><g><svg viewBox="0 0 244.43135999999998 29.362711044545662" height="29.362711044545662" width="244.43135999999998"><g><svg viewBox="0 0 244.43135999999998 29.362711044545662" height="29.362711044545662" width="244.43135999999998"><g id="SvgjsG1296"><svg viewBox="0 0 244.43135999999998 29.362711044545662" height="29.362711044545662" width="244.43135999999998" id="SvgjsSvg1295"><g><svg viewBox="0 0 244.43135999999998 29.362711044545662" height="29.362711044545662" width="244.43135999999998"><g transform="matrix(1,0,0,1,0,0)"><svg width="244.43135999999998" viewBox="3.42 -37.5 316.2 37.99" height="29.362711044545662" data-palette-color="url(#60cfeecb-830c-4684-90fa-af33929e4665)"></svg></g></svg></g></svg></g></svg></g></svg></g></svg></g></svg></g><path d="M175.247 102.919L175.247 38.67 5.387 38.67 5.387 208.53 175.247 208.53 175.247 144.281 172.599 144.281 172.599 205.882 8.035 205.882 8.035 41.318 172.599 41.318 172.599 102.919Z" fill="white" stroke="transparent"></path></svg></g><defs><mask></mask></defs><mask><g id="SvgjsG1294"><svg viewBox="0 0 395.52 247.2" height="247.2" width="395.52"><g><svg></svg></g><g><svg viewBox="0 0 395.52 247.2" height="247.2" width="395.52"><g transform="matrix(1,0,0,1,75.54432,108.91864447772716)"><svg viewBox="0 0 244.43135999999998 29.362711044545662" height="29.362711044545662" width="244.43135999999998"><g><svg viewBox="0 0 244.43135999999998 29.362711044545662" height="29.362711044545662" width="244.43135999999998"><g><svg viewBox="0 0 244.43135999999998 29.362711044545662" height="29.362711044545662" width="244.43135999999998"><g><svg viewBox="0 0 244.43135999999998 29.362711044545662" height="29.362711044545662" width="244.43135999999998"><g id="SvgjsG1293"><svg viewBox="0 0 244.43135999999998 29.362711044545662" height="29.362711044545662" width="244.43135999999998" id="SvgjsSvg1292"><g><svg viewBox="0 0 244.43135999999998 29.362711044545662" height="29.362711044545662" width="244.43135999999998"><g transform="matrix(1,0,0,1,0,0)"><svg width="244.43135999999998" viewBox="3.42 -37.5 316.2 37.99" height="29.362711044545662" data-palette-color="url(#60cfeecb-830c-4684-90fa-af33929e4665)"><path d="M7.93-37.5L7.93-23.22Q10.94-26.9 15.75-26.9L15.75-26.9Q24.12-26.9 24.19-17.46L24.19-17.46 24.19 0 19.68 0 19.68-17.48Q19.65-20.34 18.37-21.7 17.09-23.07 14.38-23.07L14.38-23.07Q12.18-23.07 10.52-21.9 8.86-20.73 7.93-18.82L7.93-18.82 7.93 0 3.42 0 3.42-37.5 7.93-37.5ZM52 0L47.26 0Q46.87-0.78 46.63-2.78L46.63-2.78Q43.48 0.49 39.11 0.49L39.11 0.49Q35.2 0.49 32.7-1.72 30.2-3.93 30.2-7.32L30.2-7.32Q30.2-11.45 33.33-13.73 36.47-16.02 42.16-16.02L42.16-16.02 46.56-16.02 46.56-18.09Q46.56-20.46 45.14-21.86 43.72-23.27 40.96-23.27L40.96-23.27Q38.55-23.27 36.91-22.05 35.28-20.83 35.28-19.09L35.28-19.09 30.73-19.09Q30.73-21.07 32.14-22.91 33.54-24.76 35.95-25.83 38.35-26.9 41.23-26.9L41.23-26.9Q45.8-26.9 48.39-24.62 50.97-22.34 51.07-18.33L51.07-18.33 51.07-6.18Q51.07-2.54 52-0.39L52-0.39 52 0ZM39.77-3.44L39.77-3.44Q41.89-3.44 43.8-4.54 45.7-5.64 46.56-7.4L46.56-7.4 46.56-12.82 43.02-12.82Q34.71-12.82 34.71-7.96L34.71-7.96Q34.71-5.83 36.13-4.64 37.55-3.44 39.77-3.44ZM59.79-26.42L66.5-6.13 73.04-26.42 77.66-26.42 68.18 0 64.74 0 55.17-26.42 59.79-26.42ZM92.64 0.49L92.64 0.49Q87.27 0.49 83.9-3.04 80.53-6.57 80.53-12.48L80.53-12.48 80.53-13.31Q80.53-17.24 82.04-20.32 83.54-23.41 86.24-25.16 88.93-26.9 92.08-26.9L92.08-26.9Q97.23-26.9 100.09-23.51 102.95-20.12 102.95-13.79L102.95-13.79 102.95-11.91 85.05-11.91Q85.15-8.01 87.33-5.6 89.52-3.2 92.89-3.2L92.89-3.2Q95.28-3.2 96.94-4.17 98.6-5.15 99.85-6.76L99.85-6.76 102.6-4.61Q99.28 0.49 92.64 0.49ZM92.08-23.19L92.08-23.19Q89.35-23.19 87.49-21.2 85.64-19.21 85.2-15.63L85.2-15.63 98.43-15.63 98.43-15.97Q98.23-19.41 96.57-21.3 94.91-23.19 92.08-23.19ZM108.17-26.42L112.44-26.42 112.59-23.1Q115.62-26.9 120.5-26.9L120.5-26.9Q128.87-26.9 128.95-17.46L128.95-17.46 128.95 0 124.43 0 124.43-17.48Q124.4-20.34 123.12-21.7 121.84-23.07 119.13-23.07L119.13-23.07Q116.93-23.07 115.27-21.9 113.61-20.73 112.69-18.82L112.69-18.82 112.69 0 108.17 0 108.17-26.42ZM141.86-16.28L141.86-19.97 145.25-19.97Q148.45-20.02 150.28-21.66 152.11-23.29 152.11-26.07L152.11-26.07Q152.11-32.32 145.89-32.32L145.89-32.32Q142.96-32.32 141.21-30.65 139.47-28.98 139.47-26.22L139.47-26.22 134.95-26.22Q134.95-30.44 138.04-33.24 141.13-36.04 145.89-36.04L145.89-36.04Q150.92-36.04 153.77-33.37 156.63-30.71 156.63-25.98L156.63-25.98Q156.63-23.66 155.13-21.48 153.63-19.31 151.04-18.24L151.04-18.24Q153.97-17.31 155.57-15.16 157.17-13.01 157.17-9.91L157.17-9.91Q157.17-5.13 154.04-2.32 150.92 0.49 145.91 0.49 140.91 0.49 137.77-2.22 134.63-4.93 134.63-9.38L134.63-9.38 139.17-9.38Q139.17-6.57 141-4.88 142.83-3.2 145.91-3.2L145.91-3.2Q149.18-3.2 150.92-4.91 152.65-6.62 152.65-9.81L152.65-9.81Q152.65-12.92 150.74-14.58 148.84-16.24 145.25-16.28L145.25-16.28 141.86-16.28ZM180.28-35.57L181.09-35.57 181.09-31.74 180.26-31.74Q174.99-31.64 171.86-28.61 168.74-25.59 168.25-20.09L168.25-20.09Q171.05-23.32 175.91-23.32L175.91-23.32Q180.55-23.32 183.32-20.04 186.09-16.77 186.09-11.6L186.09-11.6Q186.09-6.1 183.1-2.81 180.11 0.49 175.08 0.49L175.08 0.49Q169.98 0.49 166.81-3.43 163.63-7.35 163.63-13.53L163.63-13.53 163.63-15.26Q163.63-25.07 167.82-30.26 172.01-35.45 180.28-35.57L180.28-35.57ZM175.16-19.56L175.16-19.56Q172.84-19.56 170.88-18.16 168.93-16.77 168.17-14.67L168.17-14.67 168.17-13.01Q168.17-8.62 170.15-5.93 172.13-3.25 175.08-3.25L175.08-3.25Q178.13-3.25 179.88-5.49 181.63-7.74 181.63-11.38L181.63-11.38Q181.63-15.04 179.86-17.3 178.09-19.56 175.16-19.56ZM213.73-21.02L213.73-15.16Q213.73-7.23 211.02-3.37 208.31 0.49 202.55 0.49L202.55 0.49Q196.86 0.49 194.12-3.28 191.39-7.06 191.29-14.55L191.29-14.55 191.29-20.58Q191.29-28.42 194-32.23 196.71-36.04 202.5-36.04L202.5-36.04Q208.23-36.04 210.94-32.36 213.65-28.69 213.73-21.02L213.73-21.02ZM209.21-13.94L209.21-21.34Q209.21-27.08 207.6-29.7 205.99-32.32 202.5-32.32L202.5-32.32Q199.03-32.32 197.44-29.71 195.86-27.1 195.81-21.68L195.81-21.68 195.81-14.45Q195.81-8.69 197.48-5.94 199.15-3.2 202.55-3.2L202.55-3.2Q205.89-3.2 207.51-5.79 209.14-8.37 209.21-13.94L209.21-13.94ZM237.26-37.5L237.26 0 232.74 0 232.74-37.5 237.26-37.5ZM265.53 0L260.79 0Q260.4-0.78 260.16-2.78L260.16-2.78Q257.01 0.49 252.64 0.49L252.64 0.49Q248.73 0.49 246.23-1.72 243.73-3.93 243.73-7.32L243.73-7.32Q243.73-11.45 246.86-13.73 250-16.02 255.69-16.02L255.69-16.02 260.08-16.02 260.08-18.09Q260.08-20.46 258.67-21.86 257.25-23.27 254.49-23.27L254.49-23.27Q252.07-23.27 250.44-22.05 248.8-20.83 248.8-19.09L248.8-19.09 244.26-19.09Q244.26-21.07 245.67-22.91 247.07-24.76 249.47-25.83 251.88-26.9 254.76-26.9L254.76-26.9Q259.33-26.9 261.91-24.62 264.5-22.34 264.6-18.33L264.6-18.33 264.6-6.18Q264.6-2.54 265.53-0.39L265.53-0.39 265.53 0ZM253.3-3.44L253.3-3.44Q255.42-3.44 257.32-4.54 259.23-5.64 260.08-7.4L260.08-7.4 260.08-12.82 256.54-12.82Q248.24-12.82 248.24-7.96L248.24-7.96Q248.24-5.83 249.66-4.64 251.07-3.44 253.3-3.44ZM294.04-13.31L294.04-12.92Q294.04-6.86 291.26-3.19 288.47 0.49 283.79 0.49L283.79 0.49Q278.78 0.49 276.05-3.05L276.05-3.05 275.83 0 271.68 0 271.68-37.5 276.19-37.5 276.19-23.51Q278.93-26.9 283.74-26.9 288.55-26.9 291.29-23.27 294.04-19.63 294.04-13.31L294.04-13.31ZM289.52-13.43L289.52-13.43Q289.52-18.04 287.74-20.56 285.96-23.07 282.61-23.07L282.61-23.07Q278.15-23.07 276.19-18.92L276.19-18.92 276.19-7.5Q278.27-3.34 282.66-3.34L282.66-3.34Q285.91-3.34 287.72-5.86 289.52-8.37 289.52-13.43ZM315.11-7.01L315.11-7.01Q315.11-8.84 313.73-9.85 312.35-10.86 308.92-11.6 305.49-12.33 303.47-13.35 301.46-14.38 300.49-15.8 299.53-17.21 299.53-19.17L299.53-19.17Q299.53-22.41 302.28-24.66 305.02-26.9 309.3-26.9L309.3-26.9Q313.79-26.9 316.58-24.58 319.38-22.27 319.38-18.65L319.38-18.65 314.84-18.65Q314.84-20.51 313.26-21.85 311.69-23.19 309.3-23.19L309.3-23.19Q306.83-23.19 305.44-22.12 304.05-21.04 304.05-19.31L304.05-19.31Q304.05-17.68 305.34-16.85 306.64-16.02 310.02-15.26 313.4-14.5 315.5-13.45 317.6-12.4 318.61-10.93 319.62-9.45 319.62-7.32L319.62-7.32Q319.62-3.78 316.79-1.65 313.96 0.49 309.44 0.49L309.44 0.49Q306.27 0.49 303.83-0.63 301.39-1.76 300.01-3.77 298.63-5.79 298.63-8.13L298.63-8.13 303.14-8.13Q303.27-5.86 304.96-4.53 306.66-3.2 309.44-3.2L309.44-3.2Q312.01-3.2 313.56-4.24 315.11-5.27 315.11-7.01Z" opacity="1" transform="matrix(1,0,0,1,0,0)" fill="black" class="wordmark-text-0" id="SvgjsPath1291"></path></svg></g></svg></g></svg></g></svg></g></svg></g></svg></g></svg></g><path d="M175.247 102.919L175.247 38.67 5.387 38.67 5.387 208.53 175.247 208.53 175.247 144.281 172.599 144.281 172.599 205.882 8.035 205.882 8.035 41.318 172.599 41.318 172.599 102.919Z" fill="black" stroke="transparent"></path></svg></g><defs><mask></mask></defs></svg><rect width="395.52" height="247.2" fill="black" stroke="none" visibility="hidden"></rect></g></mask></svg><rect width="395.52" height="247.2" fill="black" stroke="none" visibility="hidden"></rect></g></mask><linearGradient x1="0" x2="1" y1="0.578" y2="0.595" id="579657b4-844c-49de-a83b-21cba18291d7"><stop stop-color="#6ee2f5" offset="0"></stop><stop stop-color="#6454f0" offset="1"></stop></linearGradient></svg><rect width="395.52" height="247.2" fill="none" stroke="none" visibility="hidden"></rect></g></svg></g></svg>